<mxfile host="Electron" agent="Mozilla/5.0 (Windows NT 10.0; Win64; x64) AppleWebKit/537.36 (KHTML, like Gecko) draw.io/26.2.2 Chrome/134.0.6998.178 Electron/35.1.2 Safari/537.36" version="26.2.2">
  <diagram name="Page-1" id="6133507b-19e7-1e82-6fc7-422aa6c4b21f">
    <mxGraphModel dx="3173" dy="1887" grid="1" gridSize="10" guides="1" tooltips="1" connect="1" arrows="1" fold="1" page="1" pageScale="1" pageWidth="134" pageHeight="299" background="none" math="0" shadow="0">
      <root>
        <mxCell id="0" />
        <mxCell id="1" parent="0" />
        <mxCell id="wfumwOkSITD2EfPKzsEV-1" value="japedidos.produto.Produto" style="swimlane;fontStyle=0;childLayout=stackLayout;horizontal=1;startSize=26;fillColor=none;horizontalStack=0;resizeParent=1;resizeParentMax=0;resizeLast=0;collapsible=1;marginBottom=0;whiteSpace=wrap;html=1;" parent="1" vertex="1">
          <mxGeometry x="24" y="240" width="190" height="234" as="geometry">
            <mxRectangle x="120" y="240" width="200" height="30" as="alternateBounds" />
          </mxGeometry>
        </mxCell>
        <mxCell id="wfumwOkSITD2EfPKzsEV-2" value="- id : int" style="text;strokeColor=none;fillColor=none;align=left;verticalAlign=top;spacingLeft=4;spacingRight=4;overflow=hidden;rotatable=0;points=[[0,0.5],[1,0.5]];portConstraint=eastwest;whiteSpace=wrap;html=1;" parent="wfumwOkSITD2EfPKzsEV-1" vertex="1">
          <mxGeometry y="26" width="190" height="26" as="geometry" />
        </mxCell>
        <mxCell id="wfumwOkSITD2EfPKzsEV-3" value="- nome : String" style="text;strokeColor=none;fillColor=none;align=left;verticalAlign=top;spacingLeft=4;spacingRight=4;overflow=hidden;rotatable=0;points=[[0,0.5],[1,0.5]];portConstraint=eastwest;whiteSpace=wrap;html=1;" parent="wfumwOkSITD2EfPKzsEV-1" vertex="1">
          <mxGeometry y="52" width="190" height="26" as="geometry" />
        </mxCell>
        <mxCell id="wfumwOkSITD2EfPKzsEV-4" value="- categoria : Categoria" style="text;strokeColor=none;fillColor=none;align=left;verticalAlign=top;spacingLeft=4;spacingRight=4;overflow=hidden;rotatable=0;points=[[0,0.5],[1,0.5]];portConstraint=eastwest;whiteSpace=wrap;html=1;" parent="wfumwOkSITD2EfPKzsEV-1" vertex="1">
          <mxGeometry y="78" width="190" height="26" as="geometry" />
        </mxCell>
        <mxCell id="wfumwOkSITD2EfPKzsEV-102" value="- precoCusto : double" style="text;strokeColor=none;fillColor=none;align=left;verticalAlign=top;spacingLeft=4;spacingRight=4;overflow=hidden;rotatable=0;points=[[0,0.5],[1,0.5]];portConstraint=eastwest;whiteSpace=wrap;html=1;" parent="wfumwOkSITD2EfPKzsEV-1" vertex="1">
          <mxGeometry y="104" width="190" height="26" as="geometry" />
        </mxCell>
        <mxCell id="wfumwOkSITD2EfPKzsEV-108" value="- precoVenda : double" style="text;strokeColor=none;fillColor=none;align=left;verticalAlign=top;spacingLeft=4;spacingRight=4;overflow=hidden;rotatable=0;points=[[0,0.5],[1,0.5]];portConstraint=eastwest;whiteSpace=wrap;html=1;" parent="wfumwOkSITD2EfPKzsEV-1" vertex="1">
          <mxGeometry y="130" width="190" height="26" as="geometry" />
        </mxCell>
        <mxCell id="wfumwOkSITD2EfPKzsEV-109" value="- unidadeMedida : Unidade" style="text;strokeColor=none;fillColor=none;align=left;verticalAlign=top;spacingLeft=4;spacingRight=4;overflow=hidden;rotatable=0;points=[[0,0.5],[1,0.5]];portConstraint=eastwest;whiteSpace=wrap;html=1;" parent="wfumwOkSITD2EfPKzsEV-1" vertex="1">
          <mxGeometry y="156" width="190" height="26" as="geometry" />
        </mxCell>
        <mxCell id="wfumwOkSITD2EfPKzsEV-110" value="- alteracao : Registro" style="text;strokeColor=none;fillColor=none;align=left;verticalAlign=top;spacingLeft=4;spacingRight=4;overflow=hidden;rotatable=0;points=[[0,0.5],[1,0.5]];portConstraint=eastwest;whiteSpace=wrap;html=1;" parent="wfumwOkSITD2EfPKzsEV-1" vertex="1">
          <mxGeometry y="182" width="190" height="26" as="geometry" />
        </mxCell>
        <mxCell id="wfumwOkSITD2EfPKzsEV-111" value="- estaAtivo : boolean" style="text;strokeColor=none;fillColor=none;align=left;verticalAlign=top;spacingLeft=4;spacingRight=4;overflow=hidden;rotatable=0;points=[[0,0.5],[1,0.5]];portConstraint=eastwest;whiteSpace=wrap;html=1;" parent="wfumwOkSITD2EfPKzsEV-1" vertex="1">
          <mxGeometry y="208" width="190" height="26" as="geometry" />
        </mxCell>
        <mxCell id="wfumwOkSITD2EfPKzsEV-5" value="japedidos.produto.Categoria" style="swimlane;fontStyle=0;childLayout=stackLayout;horizontal=1;startSize=26;fillColor=none;horizontalStack=0;resizeParent=1;resizeParentMax=0;resizeLast=0;collapsible=1;marginBottom=0;whiteSpace=wrap;html=1;" parent="1" vertex="1">
          <mxGeometry x="24" y="30" width="190" height="104" as="geometry">
            <mxRectangle x="40" y="40" width="200" height="30" as="alternateBounds" />
          </mxGeometry>
        </mxCell>
        <mxCell id="wfumwOkSITD2EfPKzsEV-6" value="- id: int" style="text;strokeColor=none;fillColor=none;align=left;verticalAlign=top;spacingLeft=4;spacingRight=4;overflow=hidden;rotatable=0;points=[[0,0.5],[1,0.5]];portConstraint=eastwest;whiteSpace=wrap;html=1;" parent="wfumwOkSITD2EfPKzsEV-5" vertex="1">
          <mxGeometry y="26" width="190" height="26" as="geometry" />
        </mxCell>
        <mxCell id="wfumwOkSITD2EfPKzsEV-7" value="- nome: String" style="text;strokeColor=none;fillColor=none;align=left;verticalAlign=top;spacingLeft=4;spacingRight=4;overflow=hidden;rotatable=0;points=[[0,0.5],[1,0.5]];portConstraint=eastwest;whiteSpace=wrap;html=1;" parent="wfumwOkSITD2EfPKzsEV-5" vertex="1">
          <mxGeometry y="52" width="190" height="26" as="geometry" />
        </mxCell>
        <mxCell id="wfumwOkSITD2EfPKzsEV-8" value="- descricao: String" style="text;strokeColor=none;fillColor=none;align=left;verticalAlign=top;spacingLeft=4;spacingRight=4;overflow=hidden;rotatable=0;points=[[0,0.5],[1,0.5]];portConstraint=eastwest;whiteSpace=wrap;html=1;" parent="wfumwOkSITD2EfPKzsEV-5" vertex="1">
          <mxGeometry y="78" width="190" height="26" as="geometry" />
        </mxCell>
        <mxCell id="rM_sMgHTgG-_GWH7B9qP-3" style="edgeStyle=orthogonalEdgeStyle;rounded=0;orthogonalLoop=1;jettySize=auto;html=1;exitX=1;exitY=0.5;exitDx=0;exitDy=0;" edge="1" parent="wfumwOkSITD2EfPKzsEV-5" source="wfumwOkSITD2EfPKzsEV-7" target="wfumwOkSITD2EfPKzsEV-7">
          <mxGeometry relative="1" as="geometry" />
        </mxCell>
        <mxCell id="wfumwOkSITD2EfPKzsEV-9" value="japedidos.produto.Unidade " style="swimlane;fontStyle=0;childLayout=stackLayout;horizontal=1;startSize=26;fillColor=none;horizontalStack=0;resizeParent=1;resizeParentMax=0;resizeLast=0;collapsible=1;marginBottom=0;whiteSpace=wrap;html=1;" parent="1" vertex="1">
          <mxGeometry x="326" y="30" width="190" height="104" as="geometry">
            <mxRectangle x="300" y="40" width="200" height="30" as="alternateBounds" />
          </mxGeometry>
        </mxCell>
        <mxCell id="wfumwOkSITD2EfPKzsEV-98" value="- id: int" style="text;strokeColor=none;fillColor=none;align=left;verticalAlign=top;spacingLeft=4;spacingRight=4;overflow=hidden;rotatable=0;points=[[0,0.5],[1,0.5]];portConstraint=eastwest;whiteSpace=wrap;html=1;" parent="wfumwOkSITD2EfPKzsEV-9" vertex="1">
          <mxGeometry y="26" width="190" height="26" as="geometry" />
        </mxCell>
        <mxCell id="wfumwOkSITD2EfPKzsEV-99" value="- nome: String" style="text;strokeColor=none;fillColor=none;align=left;verticalAlign=top;spacingLeft=4;spacingRight=4;overflow=hidden;rotatable=0;points=[[0,0.5],[1,0.5]];portConstraint=eastwest;whiteSpace=wrap;html=1;" parent="wfumwOkSITD2EfPKzsEV-9" vertex="1">
          <mxGeometry y="52" width="190" height="26" as="geometry" />
        </mxCell>
        <mxCell id="wfumwOkSITD2EfPKzsEV-100" value="- abreviacao: String" style="text;strokeColor=none;fillColor=none;align=left;verticalAlign=top;spacingLeft=4;spacingRight=4;overflow=hidden;rotatable=0;points=[[0,0.5],[1,0.5]];portConstraint=eastwest;whiteSpace=wrap;html=1;" parent="wfumwOkSITD2EfPKzsEV-9" vertex="1">
          <mxGeometry y="78" width="190" height="26" as="geometry" />
        </mxCell>
        <mxCell id="wfumwOkSITD2EfPKzsEV-13" value="japedidos.produto.ProdutoPedido " style="swimlane;fontStyle=0;childLayout=stackLayout;horizontal=1;startSize=26;fillColor=none;horizontalStack=0;resizeParent=1;resizeParentMax=0;resizeLast=0;collapsible=1;marginBottom=0;whiteSpace=wrap;html=1;" parent="1" vertex="1">
          <mxGeometry x="326" y="660" width="190" height="104" as="geometry">
            <mxRectangle x="100" y="530" width="220" height="30" as="alternateBounds" />
          </mxGeometry>
        </mxCell>
        <mxCell id="wfumwOkSITD2EfPKzsEV-14" value="- produto : Produto" style="text;strokeColor=none;fillColor=none;align=left;verticalAlign=top;spacingLeft=4;spacingRight=4;overflow=hidden;rotatable=0;points=[[0,0.5],[1,0.5]];portConstraint=eastwest;whiteSpace=wrap;html=1;" parent="wfumwOkSITD2EfPKzsEV-13" vertex="1">
          <mxGeometry y="26" width="190" height="26" as="geometry" />
        </mxCell>
        <mxCell id="wfumwOkSITD2EfPKzsEV-15" value="- quantidade : int" style="text;strokeColor=none;fillColor=none;align=left;verticalAlign=top;spacingLeft=4;spacingRight=4;overflow=hidden;rotatable=0;points=[[0,0.5],[1,0.5]];portConstraint=eastwest;whiteSpace=wrap;html=1;" parent="wfumwOkSITD2EfPKzsEV-13" vertex="1">
          <mxGeometry y="52" width="190" height="26" as="geometry" />
        </mxCell>
        <mxCell id="wfumwOkSITD2EfPKzsEV-16" value="- infoAdicional : String" style="text;strokeColor=none;fillColor=none;align=left;verticalAlign=top;spacingLeft=4;spacingRight=4;overflow=hidden;rotatable=0;points=[[0,0.5],[1,0.5]];portConstraint=eastwest;whiteSpace=wrap;html=1;" parent="wfumwOkSITD2EfPKzsEV-13" vertex="1">
          <mxGeometry y="78" width="190" height="26" as="geometry" />
        </mxCell>
        <mxCell id="wfumwOkSITD2EfPKzsEV-17" value="japedidos.pedidos.Destino " style="swimlane;fontStyle=0;childLayout=stackLayout;horizontal=1;startSize=26;fillColor=none;horizontalStack=0;resizeParent=1;resizeParentMax=0;resizeLast=0;collapsible=1;marginBottom=0;whiteSpace=wrap;html=1;" parent="1" vertex="1">
          <mxGeometry x="24" y="583" width="190" height="156" as="geometry">
            <mxRectangle x="30" y="740" width="220" height="30" as="alternateBounds" />
          </mxGeometry>
        </mxCell>
        <mxCell id="wfumwOkSITD2EfPKzsEV-18" value="- logradouro : String" style="text;strokeColor=none;fillColor=none;align=left;verticalAlign=top;spacingLeft=4;spacingRight=4;overflow=hidden;rotatable=0;points=[[0,0.5],[1,0.5]];portConstraint=eastwest;whiteSpace=wrap;html=1;" parent="wfumwOkSITD2EfPKzsEV-17" vertex="1">
          <mxGeometry y="26" width="190" height="26" as="geometry" />
        </mxCell>
        <mxCell id="wfumwOkSITD2EfPKzsEV-19" value="- numero : String" style="text;strokeColor=none;fillColor=none;align=left;verticalAlign=top;spacingLeft=4;spacingRight=4;overflow=hidden;rotatable=0;points=[[0,0.5],[1,0.5]];portConstraint=eastwest;whiteSpace=wrap;html=1;" parent="wfumwOkSITD2EfPKzsEV-17" vertex="1">
          <mxGeometry y="52" width="190" height="26" as="geometry" />
        </mxCell>
        <mxCell id="wfumwOkSITD2EfPKzsEV-20" value="- cidade : String" style="text;strokeColor=none;fillColor=none;align=left;verticalAlign=top;spacingLeft=4;spacingRight=4;overflow=hidden;rotatable=0;points=[[0,0.5],[1,0.5]];portConstraint=eastwest;whiteSpace=wrap;html=1;" parent="wfumwOkSITD2EfPKzsEV-17" vertex="1">
          <mxGeometry y="78" width="190" height="26" as="geometry" />
        </mxCell>
        <mxCell id="wfumwOkSITD2EfPKzsEV-126" value="- estado : String" style="text;strokeColor=none;fillColor=none;align=left;verticalAlign=top;spacingLeft=4;spacingRight=4;overflow=hidden;rotatable=0;points=[[0,0.5],[1,0.5]];portConstraint=eastwest;whiteSpace=wrap;html=1;" parent="wfumwOkSITD2EfPKzsEV-17" vertex="1">
          <mxGeometry y="104" width="190" height="26" as="geometry" />
        </mxCell>
        <mxCell id="wfumwOkSITD2EfPKzsEV-127" value="- pais : String" style="text;strokeColor=none;fillColor=none;align=left;verticalAlign=top;spacingLeft=4;spacingRight=4;overflow=hidden;rotatable=0;points=[[0,0.5],[1,0.5]];portConstraint=eastwest;whiteSpace=wrap;html=1;" parent="wfumwOkSITD2EfPKzsEV-17" vertex="1">
          <mxGeometry y="130" width="190" height="26" as="geometry" />
        </mxCell>
        <mxCell id="wfumwOkSITD2EfPKzsEV-21" value="japedidos.pedidos.InfoEntrega " style="swimlane;fontStyle=0;childLayout=stackLayout;horizontal=1;startSize=26;fillColor=none;horizontalStack=0;resizeParent=1;resizeParentMax=0;resizeLast=0;collapsible=1;marginBottom=0;whiteSpace=wrap;html=1;" parent="1" vertex="1">
          <mxGeometry x="26.5" y="810" width="187.5" height="182" as="geometry">
            <mxRectangle x="105" y="620" width="220" height="30" as="alternateBounds" />
          </mxGeometry>
        </mxCell>
        <mxCell id="wfumwOkSITD2EfPKzsEV-22" value="- tipoEntrega : TipoEntrega" style="text;strokeColor=none;fillColor=none;align=left;verticalAlign=top;spacingLeft=4;spacingRight=4;overflow=hidden;rotatable=0;points=[[0,0.5],[1,0.5]];portConstraint=eastwest;whiteSpace=wrap;html=1;" parent="wfumwOkSITD2EfPKzsEV-21" vertex="1">
          <mxGeometry y="26" width="187.5" height="26" as="geometry" />
        </mxCell>
        <mxCell id="wfumwOkSITD2EfPKzsEV-23" value="- destinatario : String" style="text;strokeColor=none;fillColor=none;align=left;verticalAlign=top;spacingLeft=4;spacingRight=4;overflow=hidden;rotatable=0;points=[[0,0.5],[1,0.5]];portConstraint=eastwest;whiteSpace=wrap;html=1;" parent="wfumwOkSITD2EfPKzsEV-21" vertex="1">
          <mxGeometry y="52" width="187.5" height="26" as="geometry" />
        </mxCell>
        <mxCell id="wfumwOkSITD2EfPKzsEV-24" value="- dthrEntregar : LocalDateTime" style="text;strokeColor=none;fillColor=none;align=left;verticalAlign=top;spacingLeft=4;spacingRight=4;overflow=hidden;rotatable=0;points=[[0,0.5],[1,0.5]];portConstraint=eastwest;whiteSpace=wrap;html=1;" parent="wfumwOkSITD2EfPKzsEV-21" vertex="1">
          <mxGeometry y="78" width="187.5" height="26" as="geometry" />
        </mxCell>
        <mxCell id="wfumwOkSITD2EfPKzsEV-131" value="- dthrEntregar : LocalDateTime" style="text;strokeColor=none;fillColor=none;align=left;verticalAlign=top;spacingLeft=4;spacingRight=4;overflow=hidden;rotatable=0;points=[[0,0.5],[1,0.5]];portConstraint=eastwest;whiteSpace=wrap;html=1;" parent="wfumwOkSITD2EfPKzsEV-21" vertex="1">
          <mxGeometry y="104" width="187.5" height="26" as="geometry" />
        </mxCell>
        <mxCell id="wfumwOkSITD2EfPKzsEV-132" value="- precoFrete : double" style="text;strokeColor=none;fillColor=none;align=left;verticalAlign=top;spacingLeft=4;spacingRight=4;overflow=hidden;rotatable=0;points=[[0,0.5],[1,0.5]];portConstraint=eastwest;whiteSpace=wrap;html=1;" parent="wfumwOkSITD2EfPKzsEV-21" vertex="1">
          <mxGeometry y="130" width="187.5" height="26" as="geometry" />
        </mxCell>
        <mxCell id="wfumwOkSITD2EfPKzsEV-133" value="- destino : Destino" style="text;strokeColor=none;fillColor=none;align=left;verticalAlign=top;spacingLeft=4;spacingRight=4;overflow=hidden;rotatable=0;points=[[0,0.5],[1,0.5]];portConstraint=eastwest;whiteSpace=wrap;html=1;" parent="wfumwOkSITD2EfPKzsEV-21" vertex="1">
          <mxGeometry y="156" width="187.5" height="26" as="geometry" />
        </mxCell>
        <mxCell id="wfumwOkSITD2EfPKzsEV-25" value="japedidos.pedidos.Pedido " style="swimlane;fontStyle=0;childLayout=stackLayout;horizontal=1;startSize=26;fillColor=none;horizontalStack=0;resizeParent=1;resizeParentMax=0;resizeLast=0;collapsible=1;marginBottom=0;whiteSpace=wrap;html=1;" parent="1" vertex="1">
          <mxGeometry x="604" y="660" width="310" height="500" as="geometry">
            <mxRectangle x="490" y="500" width="220" height="30" as="alternateBounds" />
          </mxGeometry>
        </mxCell>
        <mxCell id="wfumwOkSITD2EfPKzsEV-26" value="- id : int" style="text;strokeColor=none;fillColor=none;align=left;verticalAlign=top;spacingLeft=4;spacingRight=4;overflow=hidden;rotatable=0;points=[[0,0.5],[1,0.5]];portConstraint=eastwest;whiteSpace=wrap;html=1;" parent="wfumwOkSITD2EfPKzsEV-25" vertex="1">
          <mxGeometry y="26" width="310" height="26" as="geometry" />
        </mxCell>
        <mxCell id="wfumwOkSITD2EfPKzsEV-27" value="- cliente : Cliente" style="text;strokeColor=none;fillColor=none;align=left;verticalAlign=top;spacingLeft=4;spacingRight=4;overflow=hidden;rotatable=0;points=[[0,0.5],[1,0.5]];portConstraint=eastwest;whiteSpace=wrap;html=1;" parent="wfumwOkSITD2EfPKzsEV-25" vertex="1">
          <mxGeometry y="52" width="310" height="26" as="geometry" />
        </mxCell>
        <mxCell id="wfumwOkSITD2EfPKzsEV-28" value="- infoEntrega : InfoEntrega" style="text;strokeColor=none;fillColor=none;align=left;verticalAlign=top;spacingLeft=4;spacingRight=4;overflow=hidden;rotatable=0;points=[[0,0.5],[1,0.5]];portConstraint=eastwest;whiteSpace=wrap;html=1;" parent="wfumwOkSITD2EfPKzsEV-25" vertex="1">
          <mxGeometry y="78" width="310" height="26" as="geometry" />
        </mxCell>
        <mxCell id="wfumwOkSITD2EfPKzsEV-135" value="- criacao : Registro" style="text;strokeColor=none;fillColor=none;align=left;verticalAlign=top;spacingLeft=4;spacingRight=4;overflow=hidden;rotatable=0;points=[[0,0.5],[1,0.5]];portConstraint=eastwest;whiteSpace=wrap;html=1;" parent="wfumwOkSITD2EfPKzsEV-25" vertex="1">
          <mxGeometry y="104" width="310" height="26" as="geometry" />
        </mxCell>
        <mxCell id="wfumwOkSITD2EfPKzsEV-136" value="- alteracao : Registro" style="text;strokeColor=none;fillColor=none;align=left;verticalAlign=top;spacingLeft=4;spacingRight=4;overflow=hidden;rotatable=0;points=[[0,0.5],[1,0.5]];portConstraint=eastwest;whiteSpace=wrap;html=1;" parent="wfumwOkSITD2EfPKzsEV-25" vertex="1">
          <mxGeometry y="130" width="310" height="26" as="geometry" />
        </mxCell>
        <mxCell id="wfumwOkSITD2EfPKzsEV-137" value="- precoFinal : double" style="text;strokeColor=none;fillColor=none;align=left;verticalAlign=top;spacingLeft=4;spacingRight=4;overflow=hidden;rotatable=0;points=[[0,0.5],[1,0.5]];portConstraint=eastwest;whiteSpace=wrap;html=1;" parent="wfumwOkSITD2EfPKzsEV-25" vertex="1">
          <mxGeometry y="156" width="310" height="26" as="geometry" />
        </mxCell>
        <mxCell id="wfumwOkSITD2EfPKzsEV-138" value="- precoCustoTotal : double" style="text;strokeColor=none;fillColor=none;align=left;verticalAlign=top;spacingLeft=4;spacingRight=4;overflow=hidden;rotatable=0;points=[[0,0.5],[1,0.5]];portConstraint=eastwest;whiteSpace=wrap;html=1;" parent="wfumwOkSITD2EfPKzsEV-25" vertex="1">
          <mxGeometry y="182" width="310" height="26" as="geometry" />
        </mxCell>
        <mxCell id="wfumwOkSITD2EfPKzsEV-139" value="- taxaDesconto : int" style="text;strokeColor=none;fillColor=none;align=left;verticalAlign=top;spacingLeft=4;spacingRight=4;overflow=hidden;rotatable=0;points=[[0,0.5],[1,0.5]];portConstraint=eastwest;whiteSpace=wrap;html=1;" parent="wfumwOkSITD2EfPKzsEV-25" vertex="1">
          <mxGeometry y="208" width="310" height="26" as="geometry" />
        </mxCell>
        <mxCell id="wfumwOkSITD2EfPKzsEV-140" value="- estadoAtual : EstadoPedido" style="text;strokeColor=none;fillColor=none;align=left;verticalAlign=top;spacingLeft=4;spacingRight=4;overflow=hidden;rotatable=0;points=[[0,0.5],[1,0.5]];portConstraint=eastwest;whiteSpace=wrap;html=1;" parent="wfumwOkSITD2EfPKzsEV-25" vertex="1">
          <mxGeometry y="234" width="310" height="26" as="geometry" />
        </mxCell>
        <mxCell id="wfumwOkSITD2EfPKzsEV-141" value="- estadosPedido : EstadoPedido[]" style="text;strokeColor=none;fillColor=none;align=left;verticalAlign=top;spacingLeft=4;spacingRight=4;overflow=hidden;rotatable=0;points=[[0,0.5],[1,0.5]];portConstraint=eastwest;whiteSpace=wrap;html=1;" parent="wfumwOkSITD2EfPKzsEV-25" vertex="1">
          <mxGeometry y="260" width="310" height="26" as="geometry" />
        </mxCell>
        <mxCell id="wfumwOkSITD2EfPKzsEV-142" value="- dtPago : LocalDate" style="text;strokeColor=none;fillColor=none;align=left;verticalAlign=top;spacingLeft=4;spacingRight=4;overflow=hidden;rotatable=0;points=[[0,0.5],[1,0.5]];portConstraint=eastwest;whiteSpace=wrap;html=1;" parent="wfumwOkSITD2EfPKzsEV-25" vertex="1">
          <mxGeometry y="286" width="310" height="26" as="geometry" />
        </mxCell>
        <mxCell id="wfumwOkSITD2EfPKzsEV-143" value="- dtVencimentoPagamento : LocalDate" style="text;strokeColor=none;fillColor=none;align=left;verticalAlign=top;spacingLeft=4;spacingRight=4;overflow=hidden;rotatable=0;points=[[0,0.5],[1,0.5]];portConstraint=eastwest;whiteSpace=wrap;html=1;" parent="wfumwOkSITD2EfPKzsEV-25" vertex="1">
          <mxGeometry y="312" width="310" height="26" as="geometry" />
        </mxCell>
        <mxCell id="wfumwOkSITD2EfPKzsEV-144" value="- produtosPedido : ProdutoPedido[]" style="text;strokeColor=none;fillColor=none;align=left;verticalAlign=top;spacingLeft=4;spacingRight=4;overflow=hidden;rotatable=0;points=[[0,0.5],[1,0.5]];portConstraint=eastwest;whiteSpace=wrap;html=1;" parent="wfumwOkSITD2EfPKzsEV-25" vertex="1">
          <mxGeometry y="338" width="310" height="26" as="geometry" />
        </mxCell>
        <mxCell id="wfumwOkSITD2EfPKzsEV-145" value="- infoCancelamento : String" style="text;strokeColor=none;fillColor=none;align=left;verticalAlign=top;spacingLeft=4;spacingRight=4;overflow=hidden;rotatable=0;points=[[0,0.5],[1,0.5]];portConstraint=eastwest;whiteSpace=wrap;html=1;" parent="wfumwOkSITD2EfPKzsEV-25" vertex="1">
          <mxGeometry y="364" width="310" height="26" as="geometry" />
        </mxCell>
        <mxCell id="wfumwOkSITD2EfPKzsEV-152" value="" style="line;strokeWidth=1;fillColor=none;align=left;verticalAlign=middle;spacingTop=-1;spacingLeft=3;spacingRight=3;rotatable=0;labelPosition=right;points=[];portConstraint=eastwest;strokeColor=inherit;" parent="wfumwOkSITD2EfPKzsEV-25" vertex="1">
          <mxGeometry y="390" width="310" height="8" as="geometry" />
        </mxCell>
        <mxCell id="wfumwOkSITD2EfPKzsEV-146" value="+ Pedido(cliente : Cliente, infoEntrega : InfoEntrega, produtoPedido : ProdutoPedido[], taxaDesconto : int) " style="text;strokeColor=none;fillColor=none;align=left;verticalAlign=top;spacingLeft=4;spacingRight=4;overflow=hidden;rotatable=0;points=[[0,0.5],[1,0.5]];portConstraint=eastwest;whiteSpace=wrap;html=1;" parent="wfumwOkSITD2EfPKzsEV-25" vertex="1">
          <mxGeometry y="398" width="310" height="42" as="geometry" />
        </mxCell>
        <mxCell id="wfumwOkSITD2EfPKzsEV-147" value="+ Pedido(id : int, cliente : Cliente, infoEntrega : InfoEntrega, produtoPedido : ProdutoPedido[], taxaDesconto : int)" style="text;strokeColor=none;fillColor=none;align=left;verticalAlign=top;spacingLeft=4;spacingRight=4;overflow=hidden;rotatable=0;points=[[0,0.5],[1,0.5]];portConstraint=eastwest;whiteSpace=wrap;html=1;" parent="wfumwOkSITD2EfPKzsEV-25" vertex="1">
          <mxGeometry y="440" width="310" height="60" as="geometry" />
        </mxCell>
        <mxCell id="wfumwOkSITD2EfPKzsEV-29" value="japedidos.clientes.Cliente " style="swimlane;fontStyle=0;childLayout=stackLayout;horizontal=1;startSize=26;fillColor=none;horizontalStack=0;resizeParent=1;resizeParentMax=0;resizeLast=0;collapsible=1;marginBottom=0;whiteSpace=wrap;html=1;" parent="1" vertex="1">
          <mxGeometry x="659" y="240" width="200" height="208" as="geometry">
            <mxRectangle x="440" y="670" width="220" height="30" as="alternateBounds" />
          </mxGeometry>
        </mxCell>
        <mxCell id="wfumwOkSITD2EfPKzsEV-30" value="- id : int" style="text;strokeColor=none;fillColor=none;align=left;verticalAlign=top;spacingLeft=4;spacingRight=4;overflow=hidden;rotatable=0;points=[[0,0.5],[1,0.5]];portConstraint=eastwest;whiteSpace=wrap;html=1;" parent="wfumwOkSITD2EfPKzsEV-29" vertex="1">
          <mxGeometry y="26" width="200" height="26" as="geometry" />
        </mxCell>
        <mxCell id="wfumwOkSITD2EfPKzsEV-31" value="- nome : String" style="text;strokeColor=none;fillColor=none;align=left;verticalAlign=top;spacingLeft=4;spacingRight=4;overflow=hidden;rotatable=0;points=[[0,0.5],[1,0.5]];portConstraint=eastwest;whiteSpace=wrap;html=1;" parent="wfumwOkSITD2EfPKzsEV-29" vertex="1">
          <mxGeometry y="52" width="200" height="26" as="geometry" />
        </mxCell>
        <mxCell id="wfumwOkSITD2EfPKzsEV-32" value="- telefone : String" style="text;strokeColor=none;fillColor=none;align=left;verticalAlign=top;spacingLeft=4;spacingRight=4;overflow=hidden;rotatable=0;points=[[0,0.5],[1,0.5]];portConstraint=eastwest;whiteSpace=wrap;html=1;" parent="wfumwOkSITD2EfPKzsEV-29" vertex="1">
          <mxGeometry y="78" width="200" height="26" as="geometry" />
        </mxCell>
        <mxCell id="rM_sMgHTgG-_GWH7B9qP-2" value="- ultimoPedido : Pedido" style="text;strokeColor=none;fillColor=none;align=left;verticalAlign=top;spacingLeft=4;spacingRight=4;overflow=hidden;rotatable=0;points=[[0,0.5],[1,0.5]];portConstraint=eastwest;whiteSpace=wrap;html=1;" vertex="1" parent="wfumwOkSITD2EfPKzsEV-29">
          <mxGeometry y="104" width="200" height="26" as="geometry" />
        </mxCell>
        <mxCell id="wfumwOkSITD2EfPKzsEV-122" value="- ultimoPedido : Pedido" style="text;strokeColor=none;fillColor=none;align=left;verticalAlign=top;spacingLeft=4;spacingRight=4;overflow=hidden;rotatable=0;points=[[0,0.5],[1,0.5]];portConstraint=eastwest;whiteSpace=wrap;html=1;" parent="wfumwOkSITD2EfPKzsEV-29" vertex="1">
          <mxGeometry y="130" width="200" height="26" as="geometry" />
        </mxCell>
        <mxCell id="wfumwOkSITD2EfPKzsEV-123" value="- infoAdicional : InfoAdicional" style="text;strokeColor=none;fillColor=none;align=left;verticalAlign=top;spacingLeft=4;spacingRight=4;overflow=hidden;rotatable=0;points=[[0,0.5],[1,0.5]];portConstraint=eastwest;whiteSpace=wrap;html=1;" parent="wfumwOkSITD2EfPKzsEV-29" vertex="1">
          <mxGeometry y="156" width="200" height="26" as="geometry" />
        </mxCell>
        <mxCell id="wfumwOkSITD2EfPKzsEV-124" value="&amp;nbsp;+ NULL_ID : int" style="text;strokeColor=none;fillColor=none;align=left;verticalAlign=top;spacingLeft=4;spacingRight=4;overflow=hidden;rotatable=0;points=[[0,0.5],[1,0.5]];portConstraint=eastwest;whiteSpace=wrap;html=1;" parent="wfumwOkSITD2EfPKzsEV-29" vertex="1">
          <mxGeometry y="182" width="200" height="26" as="geometry" />
        </mxCell>
        <mxCell id="wfumwOkSITD2EfPKzsEV-45" value="" style="endArrow=none;startArrow=diamondThin;endFill=0;startFill=1;html=1;verticalAlign=bottom;labelBackgroundColor=none;strokeWidth=1;startSize=8;endSize=8;rounded=0;" parent="1" source="wfumwOkSITD2EfPKzsEV-1" target="wfumwOkSITD2EfPKzsEV-5" edge="1">
          <mxGeometry width="160" relative="1" as="geometry">
            <mxPoint x="524" y="390" as="sourcePoint" />
            <mxPoint x="684" y="390" as="targetPoint" />
          </mxGeometry>
        </mxCell>
        <mxCell id="wfumwOkSITD2EfPKzsEV-49" value="-categoria" style="edgeLabel;html=1;align=center;verticalAlign=middle;resizable=0;points=[];" parent="wfumwOkSITD2EfPKzsEV-45" vertex="1" connectable="0">
          <mxGeometry x="0.787" relative="1" as="geometry">
            <mxPoint x="35" y="6" as="offset" />
          </mxGeometry>
        </mxCell>
        <mxCell id="wfumwOkSITD2EfPKzsEV-46" value="" style="endArrow=none;startArrow=diamondThin;endFill=0;startFill=1;html=1;verticalAlign=bottom;labelBackgroundColor=none;strokeWidth=1;startSize=8;endSize=8;rounded=0;entryX=0.476;entryY=1.104;entryDx=0;entryDy=0;entryPerimeter=0;exitX=1;exitY=0;exitDx=0;exitDy=0;" parent="1" source="wfumwOkSITD2EfPKzsEV-1" target="wfumwOkSITD2EfPKzsEV-100" edge="1">
          <mxGeometry width="160" relative="1" as="geometry">
            <mxPoint x="228" y="250" as="sourcePoint" />
            <mxPoint x="424" y="120" as="targetPoint" />
          </mxGeometry>
        </mxCell>
        <mxCell id="wfumwOkSITD2EfPKzsEV-48" value="-unidadeMedida" style="edgeLabel;html=1;align=center;verticalAlign=middle;resizable=0;points=[];" parent="wfumwOkSITD2EfPKzsEV-46" vertex="1" connectable="0">
          <mxGeometry x="0.7828" relative="1" as="geometry">
            <mxPoint x="38" y="6" as="offset" />
          </mxGeometry>
        </mxCell>
        <mxCell id="wfumwOkSITD2EfPKzsEV-51" value="" style="endArrow=none;startArrow=diamondThin;endFill=0;startFill=1;html=1;verticalAlign=bottom;labelBackgroundColor=none;strokeWidth=1;startSize=8;endSize=8;rounded=0;entryX=0.533;entryY=0.014;entryDx=0;entryDy=0;entryPerimeter=0;exitX=1;exitY=1.07;exitDx=0;exitDy=0;exitPerimeter=0;" parent="1" source="wfumwOkSITD2EfPKzsEV-111" target="wfumwOkSITD2EfPKzsEV-13" edge="1">
          <mxGeometry width="160" relative="1" as="geometry">
            <mxPoint x="213.66" y="259.9999999999999" as="sourcePoint" />
            <mxPoint x="213.66" y="379.9999999999999" as="targetPoint" />
          </mxGeometry>
        </mxCell>
        <mxCell id="wfumwOkSITD2EfPKzsEV-52" value="-produto" style="edgeLabel;html=1;align=center;verticalAlign=middle;resizable=0;points=[];" parent="wfumwOkSITD2EfPKzsEV-51" vertex="1" connectable="0">
          <mxGeometry x="0.7828" relative="1" as="geometry">
            <mxPoint x="28" y="-5" as="offset" />
          </mxGeometry>
        </mxCell>
        <mxCell id="wfumwOkSITD2EfPKzsEV-53" value="" style="endArrow=none;startArrow=diamondThin;endFill=0;startFill=1;html=1;verticalAlign=bottom;labelBackgroundColor=none;strokeWidth=1;startSize=8;endSize=8;rounded=0;entryX=1;entryY=0.5;entryDx=0;entryDy=0;" parent="1" source="wfumwOkSITD2EfPKzsEV-25" target="wfumwOkSITD2EfPKzsEV-15" edge="1">
          <mxGeometry width="160" relative="1" as="geometry">
            <mxPoint x="354" y="733" as="sourcePoint" />
            <mxPoint x="454" y="565" as="targetPoint" />
          </mxGeometry>
        </mxCell>
        <mxCell id="wfumwOkSITD2EfPKzsEV-54" value="-produtosPedido" style="edgeLabel;html=1;align=center;verticalAlign=middle;resizable=0;points=[];" parent="wfumwOkSITD2EfPKzsEV-53" vertex="1" connectable="0">
          <mxGeometry x="0.7828" relative="1" as="geometry">
            <mxPoint x="31" y="19" as="offset" />
          </mxGeometry>
        </mxCell>
        <mxCell id="wfumwOkSITD2EfPKzsEV-55" value="" style="endArrow=none;startArrow=diamondThin;endFill=0;startFill=1;html=1;verticalAlign=bottom;labelBackgroundColor=none;strokeWidth=1;startSize=8;endSize=8;rounded=0;" parent="1" source="wfumwOkSITD2EfPKzsEV-21" target="wfumwOkSITD2EfPKzsEV-60" edge="1">
          <mxGeometry width="160" relative="1" as="geometry">
            <mxPoint x="464" y="455" as="sourcePoint" />
            <mxPoint x="464" y="575" as="targetPoint" />
          </mxGeometry>
        </mxCell>
        <mxCell id="wfumwOkSITD2EfPKzsEV-56" value="-tipoEntrega" style="edgeLabel;html=1;align=center;verticalAlign=middle;resizable=0;points=[];" parent="wfumwOkSITD2EfPKzsEV-55" vertex="1" connectable="0">
          <mxGeometry x="0.7828" relative="1" as="geometry">
            <mxPoint x="34" y="-5" as="offset" />
          </mxGeometry>
        </mxCell>
        <mxCell id="wfumwOkSITD2EfPKzsEV-57" value="" style="endArrow=none;startArrow=diamondThin;endFill=0;startFill=1;html=1;verticalAlign=bottom;labelBackgroundColor=none;strokeWidth=1;startSize=8;endSize=8;rounded=0;" parent="1" source="wfumwOkSITD2EfPKzsEV-21" target="wfumwOkSITD2EfPKzsEV-17" edge="1">
          <mxGeometry width="160" relative="1" as="geometry">
            <mxPoint x="394" y="500" as="sourcePoint" />
            <mxPoint x="394" y="620" as="targetPoint" />
          </mxGeometry>
        </mxCell>
        <mxCell id="wfumwOkSITD2EfPKzsEV-58" value="-destino" style="edgeLabel;html=1;align=center;verticalAlign=middle;resizable=0;points=[];" parent="wfumwOkSITD2EfPKzsEV-57" vertex="1" connectable="0">
          <mxGeometry x="0.7828" relative="1" as="geometry">
            <mxPoint x="26" y="9" as="offset" />
          </mxGeometry>
        </mxCell>
        <mxCell id="wfumwOkSITD2EfPKzsEV-60" value="«enum»&lt;br/&gt;japedidos.pedidos.TipoEntrega&lt;br/&gt; " style="swimlane;fontStyle=0;childLayout=stackLayout;horizontal=1;startSize=39;fillColor=none;horizontalStack=0;resizeParent=1;resizeParentMax=0;resizeLast=0;collapsible=1;marginBottom=0;whiteSpace=wrap;html=1;" parent="1" vertex="1">
          <mxGeometry x="26.5" y="1069" width="187.5" height="91" as="geometry">
            <mxRectangle x="220" y="780" width="210" height="50" as="alternateBounds" />
          </mxGeometry>
        </mxCell>
        <mxCell id="wfumwOkSITD2EfPKzsEV-61" value="ENVIO" style="text;strokeColor=none;fillColor=none;align=left;verticalAlign=top;spacingLeft=4;spacingRight=4;overflow=hidden;rotatable=0;points=[[0,0.5],[1,0.5]];portConstraint=eastwest;whiteSpace=wrap;html=1;" parent="wfumwOkSITD2EfPKzsEV-60" vertex="1">
          <mxGeometry y="39" width="187.5" height="26" as="geometry" />
        </mxCell>
        <mxCell id="wfumwOkSITD2EfPKzsEV-62" value="RETIRADA" style="text;strokeColor=none;fillColor=none;align=left;verticalAlign=top;spacingLeft=4;spacingRight=4;overflow=hidden;rotatable=0;points=[[0,0.5],[1,0.5]];portConstraint=eastwest;whiteSpace=wrap;html=1;" parent="wfumwOkSITD2EfPKzsEV-60" vertex="1">
          <mxGeometry y="65" width="187.5" height="26" as="geometry" />
        </mxCell>
        <mxCell id="wfumwOkSITD2EfPKzsEV-66" value="" style="endArrow=none;startArrow=diamondThin;endFill=0;startFill=1;html=1;verticalAlign=bottom;labelBackgroundColor=none;strokeWidth=1;startSize=8;endSize=8;rounded=0;exitX=0.005;exitY=0.178;exitDx=0;exitDy=0;exitPerimeter=0;" parent="1" source="wfumwOkSITD2EfPKzsEV-140" target="wfumwOkSITD2EfPKzsEV-21" edge="1">
          <mxGeometry width="160" relative="1" as="geometry">
            <mxPoint x="604" y="920" as="sourcePoint" />
            <mxPoint x="314" y="595" as="targetPoint" />
          </mxGeometry>
        </mxCell>
        <mxCell id="wfumwOkSITD2EfPKzsEV-67" value="-infoEntrega" style="edgeLabel;html=1;align=center;verticalAlign=middle;resizable=0;points=[];" parent="wfumwOkSITD2EfPKzsEV-66" vertex="1" connectable="0">
          <mxGeometry x="0.7828" relative="1" as="geometry">
            <mxPoint x="26" y="8" as="offset" />
          </mxGeometry>
        </mxCell>
        <mxCell id="wfumwOkSITD2EfPKzsEV-68" value="" style="endArrow=diamondThin;startArrow=diamondThin;endFill=1;startFill=1;html=1;verticalAlign=bottom;labelBackgroundColor=none;strokeWidth=1;startSize=8;endSize=8;rounded=0;" parent="1" source="wfumwOkSITD2EfPKzsEV-25" target="wfumwOkSITD2EfPKzsEV-29" edge="1">
          <mxGeometry width="160" relative="1" as="geometry">
            <mxPoint x="494" y="559" as="sourcePoint" />
            <mxPoint x="314" y="581" as="targetPoint" />
          </mxGeometry>
        </mxCell>
        <mxCell id="wfumwOkSITD2EfPKzsEV-69" value="-cliente" style="edgeLabel;html=1;align=center;verticalAlign=middle;resizable=0;points=[];" parent="wfumwOkSITD2EfPKzsEV-68" vertex="1" connectable="0">
          <mxGeometry x="0.7828" relative="1" as="geometry">
            <mxPoint x="28" y="5" as="offset" />
          </mxGeometry>
        </mxCell>
        <mxCell id="wfumwOkSITD2EfPKzsEV-70" value="-ultimoPedido" style="edgeLabel;html=1;align=center;verticalAlign=middle;resizable=0;points=[];" parent="wfumwOkSITD2EfPKzsEV-68" vertex="1" connectable="0">
          <mxGeometry x="0.7828" relative="1" as="geometry">
            <mxPoint x="28" y="25" as="offset" />
          </mxGeometry>
        </mxCell>
        <mxCell id="wfumwOkSITD2EfPKzsEV-71" value="«enum»&lt;br&gt;japedidos.usuario.Usuario.Tipo&lt;br&gt; " style="swimlane;fontStyle=0;childLayout=stackLayout;horizontal=1;startSize=40;fillColor=none;horizontalStack=0;resizeParent=1;resizeParentMax=0;resizeLast=0;collapsible=1;marginBottom=0;whiteSpace=wrap;html=1;" parent="1" vertex="1">
          <mxGeometry x="649" y="30" width="210" height="92" as="geometry">
            <mxRectangle x="314" y="200" width="200" height="50" as="alternateBounds" />
          </mxGeometry>
        </mxCell>
        <mxCell id="wfumwOkSITD2EfPKzsEV-72" value="ATENDENTE" style="text;strokeColor=none;fillColor=none;align=left;verticalAlign=top;spacingLeft=4;spacingRight=4;overflow=hidden;rotatable=0;points=[[0,0.5],[1,0.5]];portConstraint=eastwest;whiteSpace=wrap;html=1;" parent="wfumwOkSITD2EfPKzsEV-71" vertex="1">
          <mxGeometry y="40" width="210" height="26" as="geometry" />
        </mxCell>
        <mxCell id="wfumwOkSITD2EfPKzsEV-73" value="ADMINISTRADOR" style="text;strokeColor=none;fillColor=none;align=left;verticalAlign=top;spacingLeft=4;spacingRight=4;overflow=hidden;rotatable=0;points=[[0,0.5],[1,0.5]];portConstraint=eastwest;whiteSpace=wrap;html=1;" parent="wfumwOkSITD2EfPKzsEV-71" vertex="1">
          <mxGeometry y="66" width="210" height="26" as="geometry" />
        </mxCell>
        <mxCell id="wfumwOkSITD2EfPKzsEV-78" value="" style="endArrow=none;startArrow=diamondThin;endFill=0;startFill=1;html=1;verticalAlign=bottom;labelBackgroundColor=none;strokeWidth=1;startSize=8;endSize=8;rounded=0;entryX=0.512;entryY=1.097;entryDx=0;entryDy=0;entryPerimeter=0;exitX=1;exitY=0.5;exitDx=0;exitDy=0;" parent="1" source="wfumwOkSITD2EfPKzsEV-83" target="wfumwOkSITD2EfPKzsEV-73" edge="1">
          <mxGeometry width="160" relative="1" as="geometry">
            <mxPoint x="763.6696035242289" y="456" as="sourcePoint" />
            <mxPoint x="804" y="160" as="targetPoint" />
          </mxGeometry>
        </mxCell>
        <mxCell id="wfumwOkSITD2EfPKzsEV-79" value="-tipo" style="edgeLabel;html=1;align=center;verticalAlign=middle;resizable=0;points=[];" parent="wfumwOkSITD2EfPKzsEV-78" vertex="1" connectable="0">
          <mxGeometry x="0.7828" relative="1" as="geometry">
            <mxPoint x="15" y="4" as="offset" />
          </mxGeometry>
        </mxCell>
        <mxCell id="wfumwOkSITD2EfPKzsEV-80" value="japedidos.usuario.Usuario" style="swimlane;fontStyle=0;childLayout=stackLayout;horizontal=1;startSize=26;fillColor=none;horizontalStack=0;resizeParent=1;resizeParentMax=0;resizeLast=0;collapsible=1;marginBottom=0;whiteSpace=wrap;html=1;" parent="1" vertex="1">
          <mxGeometry x="326" y="210" width="190" height="182" as="geometry">
            <mxRectangle x="480" y="130" width="200" height="30" as="alternateBounds" />
          </mxGeometry>
        </mxCell>
        <mxCell id="wfumwOkSITD2EfPKzsEV-81" value="- id : int" style="text;strokeColor=none;fillColor=none;align=left;verticalAlign=top;spacingLeft=4;spacingRight=4;overflow=hidden;rotatable=0;points=[[0,0.5],[1,0.5]];portConstraint=eastwest;whiteSpace=wrap;html=1;" parent="wfumwOkSITD2EfPKzsEV-80" vertex="1">
          <mxGeometry y="26" width="190" height="26" as="geometry" />
        </mxCell>
        <mxCell id="wfumwOkSITD2EfPKzsEV-82" value="- login : String" style="text;strokeColor=none;fillColor=none;align=left;verticalAlign=top;spacingLeft=4;spacingRight=4;overflow=hidden;rotatable=0;points=[[0,0.5],[1,0.5]];portConstraint=eastwest;whiteSpace=wrap;html=1;" parent="wfumwOkSITD2EfPKzsEV-80" vertex="1">
          <mxGeometry y="52" width="190" height="26" as="geometry" />
        </mxCell>
        <mxCell id="wfumwOkSITD2EfPKzsEV-83" value="- nome : String" style="text;strokeColor=none;fillColor=none;align=left;verticalAlign=top;spacingLeft=4;spacingRight=4;overflow=hidden;rotatable=0;points=[[0,0.5],[1,0.5]];portConstraint=eastwest;whiteSpace=wrap;html=1;" parent="wfumwOkSITD2EfPKzsEV-80" vertex="1">
          <mxGeometry y="78" width="190" height="26" as="geometry" />
        </mxCell>
        <mxCell id="wfumwOkSITD2EfPKzsEV-113" value="- senha : String" style="text;strokeColor=none;fillColor=none;align=left;verticalAlign=top;spacingLeft=4;spacingRight=4;overflow=hidden;rotatable=0;points=[[0,0.5],[1,0.5]];portConstraint=eastwest;whiteSpace=wrap;html=1;" parent="wfumwOkSITD2EfPKzsEV-80" vertex="1">
          <mxGeometry y="104" width="190" height="26" as="geometry" />
        </mxCell>
        <mxCell id="wfumwOkSITD2EfPKzsEV-114" value="- tipo : Usuario.Tipo" style="text;strokeColor=none;fillColor=none;align=left;verticalAlign=top;spacingLeft=4;spacingRight=4;overflow=hidden;rotatable=0;points=[[0,0.5],[1,0.5]];portConstraint=eastwest;whiteSpace=wrap;html=1;" parent="wfumwOkSITD2EfPKzsEV-80" vertex="1">
          <mxGeometry y="130" width="190" height="26" as="geometry" />
        </mxCell>
        <mxCell id="wfumwOkSITD2EfPKzsEV-115" value="- atual : Usuario" style="text;strokeColor=none;fillColor=none;align=left;verticalAlign=top;spacingLeft=4;spacingRight=4;overflow=hidden;rotatable=0;points=[[0,0.5],[1,0.5]];portConstraint=eastwest;whiteSpace=wrap;html=1;" parent="wfumwOkSITD2EfPKzsEV-80" vertex="1">
          <mxGeometry y="156" width="190" height="26" as="geometry" />
        </mxCell>
        <mxCell id="wfumwOkSITD2EfPKzsEV-84" value="japedidos.usuario.Registro" style="swimlane;fontStyle=0;childLayout=stackLayout;horizontal=1;startSize=26;fillColor=none;horizontalStack=0;resizeParent=1;resizeParentMax=0;resizeLast=0;collapsible=1;marginBottom=0;whiteSpace=wrap;html=1;" parent="1" vertex="1">
          <mxGeometry x="326" y="460" width="190" height="78" as="geometry">
            <mxRectangle x="360" y="260" width="200" height="30" as="alternateBounds" />
          </mxGeometry>
        </mxCell>
        <mxCell id="wfumwOkSITD2EfPKzsEV-85" value="+ AUTOR : Usuario" style="text;strokeColor=none;fillColor=none;align=left;verticalAlign=top;spacingLeft=4;spacingRight=4;overflow=hidden;rotatable=0;points=[[0,0.5],[1,0.5]];portConstraint=eastwest;whiteSpace=wrap;html=1;" parent="wfumwOkSITD2EfPKzsEV-84" vertex="1">
          <mxGeometry y="26" width="190" height="26" as="geometry" />
        </mxCell>
        <mxCell id="wfumwOkSITD2EfPKzsEV-86" value="+ DATA_HORA : LocalDateTime" style="text;strokeColor=none;fillColor=none;align=left;verticalAlign=top;spacingLeft=4;spacingRight=4;overflow=hidden;rotatable=0;points=[[0,0.5],[1,0.5]];portConstraint=eastwest;whiteSpace=wrap;html=1;" parent="wfumwOkSITD2EfPKzsEV-84" vertex="1">
          <mxGeometry y="52" width="190" height="26" as="geometry" />
        </mxCell>
        <mxCell id="wfumwOkSITD2EfPKzsEV-88" value="" style="endArrow=none;startArrow=diamondThin;endFill=0;startFill=1;html=1;verticalAlign=bottom;labelBackgroundColor=none;strokeWidth=1;startSize=8;endSize=8;rounded=0;" parent="1" source="wfumwOkSITD2EfPKzsEV-84" target="wfumwOkSITD2EfPKzsEV-80" edge="1">
          <mxGeometry width="160" relative="1" as="geometry">
            <mxPoint x="744" y="190" as="sourcePoint" />
            <mxPoint x="505" y="200" as="targetPoint" />
          </mxGeometry>
        </mxCell>
        <mxCell id="wfumwOkSITD2EfPKzsEV-89" value="+AUTOR" style="edgeLabel;html=1;align=center;verticalAlign=middle;resizable=0;points=[];" parent="wfumwOkSITD2EfPKzsEV-88" vertex="1" connectable="0">
          <mxGeometry x="0.7828" relative="1" as="geometry">
            <mxPoint x="25" y="6" as="offset" />
          </mxGeometry>
        </mxCell>
        <mxCell id="wfumwOkSITD2EfPKzsEV-90" value="" style="endArrow=none;startArrow=diamondThin;endFill=0;startFill=1;html=1;verticalAlign=bottom;labelBackgroundColor=none;strokeWidth=1;startSize=8;endSize=8;rounded=0;exitX=0;exitY=0;exitDx=0;exitDy=0;" parent="1" source="wfumwOkSITD2EfPKzsEV-25" target="wfumwOkSITD2EfPKzsEV-86" edge="1">
          <mxGeometry width="160" relative="1" as="geometry">
            <mxPoint x="474" y="425" as="sourcePoint" />
            <mxPoint x="532" y="345" as="targetPoint" />
          </mxGeometry>
        </mxCell>
        <mxCell id="wfumwOkSITD2EfPKzsEV-91" value="-criacao" style="edgeLabel;html=1;align=center;verticalAlign=middle;resizable=0;points=[];" parent="wfumwOkSITD2EfPKzsEV-90" vertex="1" connectable="0">
          <mxGeometry x="0.7828" relative="1" as="geometry">
            <mxPoint x="-27" y="9" as="offset" />
          </mxGeometry>
        </mxCell>
        <mxCell id="wfumwOkSITD2EfPKzsEV-92" value="-alteracao" style="edgeLabel;html=1;align=center;verticalAlign=middle;resizable=0;points=[];" parent="wfumwOkSITD2EfPKzsEV-90" vertex="1" connectable="0">
          <mxGeometry x="0.7828" relative="1" as="geometry">
            <mxPoint x="35" y="9" as="offset" />
          </mxGeometry>
        </mxCell>
        <mxCell id="wfumwOkSITD2EfPKzsEV-93" value="" style="endArrow=none;startArrow=diamondThin;endFill=0;startFill=1;html=1;verticalAlign=bottom;labelBackgroundColor=none;strokeWidth=1;startSize=8;endSize=8;rounded=0;entryX=0.211;entryY=-0.03;entryDx=0;entryDy=0;entryPerimeter=0;exitX=0.984;exitY=0.088;exitDx=0;exitDy=0;exitPerimeter=0;" parent="1" source="wfumwOkSITD2EfPKzsEV-102" target="wfumwOkSITD2EfPKzsEV-84" edge="1">
          <mxGeometry width="160" relative="1" as="geometry">
            <mxPoint x="274" y="360" as="sourcePoint" />
            <mxPoint x="344" y="420" as="targetPoint" />
          </mxGeometry>
        </mxCell>
        <mxCell id="wfumwOkSITD2EfPKzsEV-94" value="-alteracao" style="edgeLabel;html=1;align=center;verticalAlign=middle;resizable=0;points=[];" parent="wfumwOkSITD2EfPKzsEV-93" vertex="1" connectable="0">
          <mxGeometry x="0.7828" relative="1" as="geometry">
            <mxPoint x="-14" y="-13" as="offset" />
          </mxGeometry>
        </mxCell>
      </root>
    </mxGraphModel>
  </diagram>
</mxfile>
